<svg width="41" height="50" viewBox="0 0 41 50" fill="none" xmlns="http://www.w3.org/2000/svg">
<path fill-rule="evenodd" clip-rule="evenodd" d="M25.1407 35.7108C24.8949 35.465 24.4963 35.465 24.2505 35.7109V35.7109C24.0049 35.9565 24.0047 36.3546 24.25 36.6005L25.7451 38.0992C26.1345 38.4896 26.1345 39.1214 25.7452 39.5117L24.2499 41.0107C24.0046 41.2566 24.0049 41.6547 24.2506 41.9003V41.9003C24.4964 42.146 24.8948 42.146 25.1406 41.9002L27.5283 39.5125C27.9188 39.122 27.9188 38.4888 27.5283 38.0983L25.1407 35.7108ZM16.8499 35.7108C16.6041 35.465 16.2055 35.465 15.9597 35.7108L13.5721 38.0983C13.1816 38.4888 13.1816 39.122 13.5721 39.5125L15.9598 41.9002C16.2056 42.1459 16.604 42.146 16.8498 41.9003V41.9003C17.0954 41.6547 17.0957 41.2566 16.8505 41.0107L15.3552 39.5116C14.9658 39.1213 14.9658 38.4895 15.3552 38.0992L16.8504 36.6004C17.0957 36.3545 17.0955 35.9564 16.8499 35.7108V35.7108ZM22.0226 35.4024C21.7011 35.2678 21.3314 35.4202 21.198 35.7422L18.7221 41.7183C18.5887 42.0403 18.7413 42.4096 19.0632 42.5435V42.5435C19.3859 42.6777 19.7563 42.5245 19.8898 42.2015L22.3613 36.2236C22.4937 35.9033 22.3423 35.5362 22.0226 35.4024V35.4024ZM32.5702 29.3976C32.7807 29.3976 32.9891 29.439 33.1836 29.5196C33.3781 29.6001 33.5548 29.7182 33.7036 29.867C33.8524 30.0159 33.9705 30.1926 34.051 30.3871C34.1316 30.5815 34.173 30.79 34.173 31.0005V45.7242C34.173 46.2765 34.6207 46.7242 35.173 46.7242H38.1796C38.6222 46.7242 38.9809 47.083 38.9809 47.5256V47.5256C38.9793 47.9501 38.8099 48.3568 38.5097 48.657C38.2095 48.9572 37.8028 49.1265 37.3783 49.1281H3.74759C3.32303 49.1265 2.91632 48.9572 2.61609 48.657C2.31586 48.3568 2.14646 47.9501 2.14481 47.5256V47.5256C2.14481 47.083 2.5036 46.7242 2.9462 46.7242H5.97177C6.52406 46.7242 6.97177 46.2765 6.97177 45.7242V31.0005C6.97176 30.79 7.0132 30.5816 7.09374 30.3872C7.17428 30.1927 7.29233 30.016 7.44115 29.8672C7.58998 29.7184 7.76666 29.6004 7.96111 29.5199C8.15556 29.4393 8.36397 29.3979 8.57443 29.3979H32.5512C32.5576 29.3976 32.5638 29.3976 32.5702 29.3976ZM13.7895 21.14C14.0388 21.0942 14.2952 21.1465 14.513 21.2761C16.3515 22.37 18.4533 22.9494 20.5975 22.9494C22.7417 22.9494 24.8435 22.37 26.682 21.2761C26.8998 21.1465 27.1563 21.0937 27.4054 21.1406C27.653 21.1873 27.8978 21.2359 28.1343 21.2899C31.3178 22.0249 34.3354 23.3496 37.0311 25.1957C38.0371 26.0588 38.6888 27.2633 38.8608 28.5777L40.7537 39.8152C40.7813 40.1335 40.7234 40.4535 40.5858 40.7419C40.4483 41.0304 40.2361 41.2768 39.9713 41.4557L36.9473 43.3531C36.2813 43.771 35.4158 43.2922 35.4158 42.506V31.0005C35.4158 30.6243 35.3417 30.2518 35.1977 29.9043C35.0537 29.5567 34.8427 29.2409 34.5767 28.9749C34.3107 28.7089 33.9949 28.498 33.6473 28.354C33.2998 28.2101 32.9273 28.136 32.5511 28.136H8.57431C8.56806 28.1356 8.56169 28.1356 8.55544 28.1356C7.7957 28.1358 7.06712 28.4376 6.52992 28.9749C5.99273 29.5121 5.69091 30.2407 5.69085 31.0005V42.8029C5.69085 43.5995 4.80499 44.0763 4.14014 43.6376L1.36878 41.8091C1.0095 41.5326 0.728558 41.1672 0.553702 40.7489C0.378846 40.3307 0.316124 39.874 0.37173 39.4241L2.26463 28.5777C2.50452 27.2524 2.97132 25.9149 4.09456 25.1957C6.82819 23.3826 9.85529 22.0568 13.0416 21.2772L13.7895 21.14ZM20.5628 0.871826C22.5595 0.871826 24.5114 1.46392 26.1716 2.57322C27.8318 3.68253 29.1257 5.25923 29.8898 7.10394C30.6539 8.94864 30.8539 10.9785 30.4643 12.9368C30.0748 14.8952 29.1133 16.694 27.7014 18.1059C26.2895 19.5178 24.4907 20.4793 22.5324 20.8688C20.574 21.2583 18.5442 21.0584 16.6994 20.2943C14.8547 19.5302 13.278 18.2363 12.1687 16.5761C11.0594 14.9159 10.4673 12.964 10.4673 10.9673C10.4673 8.28982 11.531 5.722 13.4242 3.82873C15.3175 1.93545 17.8853 0.871826 20.5628 0.871826Z" fill="black"/>
</svg>
