<svg width="48" height="44" viewBox="0 0 48 44" fill="none" xmlns="http://www.w3.org/2000/svg">
<path fill-rule="evenodd" clip-rule="evenodd" d="M23.6761 0C10.6211 0 0 9.01113 0 20.0884C0 24.8078 2.1123 30.9269 7.20149 34.725L3.41923 41.8819C3.31235 42.1756 3.29508 42.4944 3.36962 42.798C3.44415 43.1015 3.60713 43.3761 3.8379 43.5869C4.06866 43.7977 4.35682 43.9353 4.66585 43.9822C4.97488 44.029 5.29086 43.9831 5.57375 43.8501L14.7483 38.6217C17.2145 40.1752 21.4001 40.1752 23.6761 40.1752C36.7311 40.1752 47.3522 31.1641 47.3522 20.0868C47.3522 9.00955 36.7311 0 23.6761 0ZM21.389 28.915C21.389 30.1172 22.3635 31.0917 23.5657 31.0917H25.0113C26.2135 31.0917 27.188 30.1172 27.188 28.915V23.1323C27.188 21.9301 26.2135 20.9556 25.0113 20.9556H23.5657C22.3635 20.9556 21.389 21.9301 21.389 23.1323V28.915ZM23.5657 29.6297C23.1709 29.6297 22.851 29.3097 22.851 28.915V23.1323C22.851 22.7376 23.1709 22.4177 23.5657 22.4177H25.0113C25.406 22.4177 25.726 22.7376 25.726 23.1323V28.915C25.726 29.3097 25.406 29.6297 25.0113 29.6297H23.5657ZM16.337 29.6296H14.8991V21.7106C14.8994 21.7025 14.8995 21.6945 14.8995 21.6864C14.8995 21.2827 14.5722 20.9554 14.1685 20.9554H12C11.5963 20.9554 11.269 21.2827 11.269 21.6864C11.269 22.0901 11.5963 22.4174 12 22.4174H13.4371V29.6296H12C11.5963 29.6296 11.269 29.9569 11.269 30.3606C11.269 30.7644 11.5963 31.0917 12 31.0917H14.1608L14.1681 31.0917L14.1755 31.0917H16.337C16.7408 31.0917 17.068 30.7644 17.068 30.3606C17.068 29.9569 16.7408 29.6296 16.337 29.6296ZM35.1387 29.6297H36.5761C36.9799 29.6297 37.3072 29.9569 37.3072 30.3607C37.3072 30.7644 36.9799 31.0917 36.5761 31.0917H34.4077H32.2391C31.8354 31.0917 31.5081 30.7644 31.5081 30.3607C31.5081 29.9569 31.8354 29.6297 32.2391 29.6297H33.6766V22.4174H32.2391C31.8354 22.4174 31.5081 22.0901 31.5081 21.6864C31.5081 21.2827 31.8354 20.9554 32.2391 20.9554H34.4076C34.7467 20.9554 35.0318 21.1862 35.1145 21.4993C35.1241 21.5358 35.131 21.5734 35.1349 21.6119C35.1374 21.6365 35.1387 21.6614 35.1387 21.6866V29.6297ZM13.4457 17.4053C12.2435 17.4053 11.269 16.4308 11.269 15.2286V9.44593C11.269 8.24375 12.2435 7.26923 13.4457 7.26923H14.8913C16.0935 7.26923 17.068 8.24375 17.068 9.44593V15.2286C17.068 16.4308 16.0935 17.4053 14.8913 17.4053H13.4457ZM12.731 15.2286C12.731 15.6233 13.051 15.9433 13.4457 15.9433H14.8913C15.2861 15.9433 15.606 15.6233 15.606 15.2286V9.44593C15.606 9.05121 15.2861 8.73127 14.8913 8.73127H13.4457C13.051 8.73127 12.731 9.05121 12.731 9.44593V15.2286ZM23.5575 15.9433V8.73106H22.12C21.7163 8.73106 21.389 8.40377 21.389 8.00004C21.389 7.5963 21.7163 7.26902 22.12 7.26902H24.2885C24.6449 7.26902 24.9417 7.52402 25.0064 7.8615C25.0122 7.89149 25.0161 7.92213 25.0181 7.95331C25.019 7.96883 25.0195 7.98448 25.0195 8.00025V15.9433H26.457C26.8607 15.9433 27.188 16.2706 27.188 16.6743C27.188 17.078 26.8607 17.4053 26.457 17.4053H24.2885H22.12C21.7163 17.4053 21.389 17.078 21.389 16.6743C21.389 16.2706 21.7163 15.9433 22.12 15.9433H23.5575ZM33.6766 8.73106V15.9433H32.2391C31.8354 15.9433 31.5081 16.2706 31.5081 16.6743C31.5081 17.078 31.8354 17.4053 32.2391 17.4053H34.4077H36.5761C36.9799 17.4053 37.3072 17.078 37.3072 16.6743C37.3072 16.2706 36.9799 15.9433 36.5761 15.9433H35.1387V8.00025C35.1387 7.97502 35.1374 7.95008 35.1349 7.92551C35.131 7.88692 35.1241 7.84922 35.1144 7.81264C35.0316 7.49971 34.7466 7.26902 34.4076 7.26902H32.2391C31.8354 7.26902 31.5081 7.5963 31.5081 8.00004C31.5081 8.40377 31.8354 8.73106 32.2391 8.73106H33.6766Z" fill="black"/>
</svg>
