<svg width="58" height="50" viewBox="0 0 58 50" fill="none" xmlns="http://www.w3.org/2000/svg">
<path d="M25.488 4.98495H25.484C24.8393 4.99038 24.3187 5.51545 24.3178 6.16107C24.3165 6.80623 24.8352 7.33211 25.4809 7.34031H25.4849C26.1296 7.33442 26.6502 6.80981 26.6515 6.16419C26.6524 5.51857 26.1338 4.99258 25.488 4.98495ZM15.6549 4.95374H15.6508C15.0128 4.97004 14.5036 5.49153 14.5031 6.12987C14.5023 6.76786 15.0094 7.29062 15.6472 7.30876H15.6508C16.2888 7.29247 16.7976 6.77098 16.799 6.13345C16.7994 5.49511 16.2919 4.97224 15.6544 4.95374H15.6549ZM0.394531 45.2327C0.39719 47.8644 2.53041 49.9972 5.16213 50.0003H52.8381C55.4698 49.9972 57.603 47.8644 57.6057 45.2327V14.172H0.394531V45.2327ZM39.3145 35.8073C39.5827 35.8073 39.84 35.9139 40.0296 36.1035C40.2193 36.2932 40.3258 36.5504 40.3258 36.8186C40.3258 37.0868 40.2193 37.3441 40.0296 37.5337C39.84 37.7234 39.5827 37.8299 39.3145 37.8299H26.312C26.0438 37.8299 25.7865 37.7234 25.5969 37.5337C25.4072 37.3441 25.3007 37.0868 25.3007 36.8186C25.3007 36.5504 25.4072 36.2932 25.5969 36.1035C25.7865 35.9139 26.0438 35.8073 26.312 35.8073H39.3145ZM18.0297 25.5091C17.8928 25.3946 17.7886 25.2458 17.7279 25.078C17.6671 24.9102 17.6519 24.7293 17.6838 24.5537C17.7155 24.378 17.7932 24.2138 17.909 24.0779C18.0248 23.942 18.1745 23.8391 18.343 23.7799C18.5113 23.7204 18.6923 23.7066 18.8677 23.7399C19.0431 23.7732 19.2065 23.8524 19.3412 23.9695L25.8849 29.5417C25.9964 29.6368 26.086 29.7549 26.1474 29.888C26.2088 30.021 26.2406 30.1658 26.2407 30.3124C26.2406 30.4588 26.2087 30.6034 26.1473 30.7363C26.0859 30.8692 25.9964 30.9872 25.8849 31.0821L19.3412 36.6541C19.2065 36.7712 19.0431 36.8504 18.8677 36.8838C18.6924 36.9171 18.5113 36.9033 18.343 36.8438C18.1745 36.7846 18.0248 36.6818 17.909 36.5458C17.7932 36.4099 17.7155 36.2457 17.6838 36.07C17.6519 35.8944 17.6671 35.7135 17.7279 35.5457C17.7886 35.3779 17.8928 35.2291 18.0297 35.1146L23.6691 30.3124L18.0297 25.5091ZM5.82173 4.92358H5.81768C5.17796 4.93618 4.66549 5.45859 4.66456 6.09877C4.66329 6.73942 5.17391 7.26311 5.81456 7.27848H5.81768C6.12556 7.27208 6.4187 7.14542 6.63436 6.92561C6.85002 6.7058 6.97108 6.4103 6.97162 6.10236C6.97254 5.46206 6.46192 4.9386 5.82173 4.92358Z" fill="black"/>
<path d="M52.8381 0H5.16213C2.53041 0.00265829 0.39719 2.13588 0.394531 4.76759V12.1492H57.6057V4.76759C57.603 2.13588 55.4698 0.00265829 52.8381 0ZM5.81768 9.30137H5.80774C4.03836 9.2986 2.60623 7.86243 2.60762 6.09316C2.60901 4.32377 4.04333 2.89038 5.8126 2.89038C7.58244 2.89038 9.01723 4.32377 9.01816 6.09304C9.02 7.86254 7.58742 9.2986 5.81768 9.30137ZM18.8514 6.14147C18.844 7.9045 17.4134 9.33027 15.6508 9.332H15.6409C13.8942 9.3008 12.495 7.87422 12.4982 6.12702C12.5005 4.38018 13.9036 2.9581 15.6504 2.93245H15.6612C17.4278 2.93961 18.855 4.37567 18.8513 6.14228L18.8514 6.14147ZM28.6846 6.17268C28.6791 7.93559 27.2484 9.36228 25.4849 9.36263H25.475C23.7155 9.34876 22.298 7.9171 22.3002 6.15719C22.3029 4.39786 23.7259 2.9707 25.4854 2.96215H25.4948C27.2619 2.96932 28.6891 4.40549 28.6849 6.17256L28.6846 6.17268Z" fill="black"/>
</svg>
