<svg width="50" height="50" viewBox="0 0 50 50" fill="none" xmlns="http://www.w3.org/2000/svg">
<g clip-path="url(#clip0_51_129)">
<path d="M20.8333 6.25H16.6667C16.6667 5.69747 16.4472 5.16756 16.0565 4.77686C15.6658 4.38616 15.1359 4.16667 14.5833 4.16667C14.0308 4.16667 13.5009 4.38616 13.1102 4.77686C12.7195 5.16756 12.5 5.69747 12.5 6.25H8.33333C8.33333 4.5924 8.99181 3.00268 10.1639 1.83058C11.336 0.65848 12.9257 9.31323e-08 14.5833 9.31323e-08C16.2409 9.31323e-08 17.8306 0.65848 19.0028 1.83058C20.1749 3.00268 20.8333 4.5924 20.8333 6.25ZM41.6667 6.25H37.5C37.5 5.69747 37.2805 5.16756 36.8898 4.77686C36.4991 4.38616 35.9692 4.16667 35.4167 4.16667C34.8641 4.16667 34.3342 4.38616 33.9435 4.77686C33.5528 5.16756 33.3333 5.69747 33.3333 6.25H29.1667C29.1667 4.5924 29.8251 3.00268 30.9972 1.83058C32.1693 0.65848 33.7591 0 35.4167 0C37.0743 0 38.664 0.65848 39.8361 1.83058C41.0082 3.00268 41.6667 4.5924 41.6667 6.25ZM0 25V44.1875C0.0629549 45.7854 0.755527 47.2934 1.92651 48.3824C3.09749 49.4715 4.65177 50.053 6.25 50H43.75C45.3482 50.053 46.9025 49.4715 48.0735 48.3824C49.2445 47.2934 49.937 45.7854 50 44.1875V25H0ZM12.5 43.75C12.088 43.75 11.6852 43.6278 11.3426 43.3989C11 43.17 10.7329 42.8446 10.5753 42.4639C10.4176 42.0832 10.3763 41.6644 10.4567 41.2602C10.5371 40.8561 10.7355 40.4849 11.0269 40.1935C11.3182 39.9022 11.6894 39.7037 12.0936 39.6234C12.4977 39.543 12.9166 39.5842 13.2973 39.7419C13.6779 39.8996 14.0033 40.1666 14.2322 40.5092C14.4611 40.8518 14.5833 41.2546 14.5833 41.6667C14.5833 42.2192 14.3638 42.7491 13.9731 43.1398C13.5824 43.5305 13.0525 43.75 12.5 43.75ZM12.5 35.4167C12.088 35.4167 11.6852 35.2945 11.3426 35.0656C11 34.8366 10.7329 34.5113 10.5753 34.1306C10.4176 33.7499 10.3763 33.331 10.4567 32.9269C10.5371 32.5228 10.7355 32.1516 11.0269 31.8602C11.3182 31.5688 11.6894 31.3704 12.0936 31.29C12.4977 31.2096 12.9166 31.2509 13.2973 31.4086C13.6779 31.5663 14.0033 31.8333 14.2322 32.1759C14.4611 32.5185 14.5833 32.9213 14.5833 33.3333C14.5833 33.8859 14.3638 34.4158 13.9731 34.8065C13.5824 35.1972 13.0525 35.4167 12.5 35.4167ZM25 43.75C24.588 43.75 24.1852 43.6278 23.8426 43.3989C23.5 43.17 23.2329 42.8446 23.0752 42.4639C22.9176 42.0832 22.8763 41.6644 22.9567 41.2602C23.0371 40.8561 23.2355 40.4849 23.5269 40.1935C23.8182 39.9022 24.1894 39.7037 24.5936 39.6234C24.9977 39.543 25.4166 39.5842 25.7973 39.7419C26.1779 39.8996 26.5033 40.1666 26.7322 40.5092C26.9611 40.8518 27.0833 41.2546 27.0833 41.6667C27.0833 42.2192 26.8638 42.7491 26.4731 43.1398C26.0824 43.5305 25.5525 43.75 25 43.75ZM25 35.4167C24.588 35.4167 24.1852 35.2945 23.8426 35.0656C23.5 34.8366 23.2329 34.5113 23.0752 34.1306C22.9176 33.7499 22.8763 33.331 22.9567 32.9269C23.0371 32.5228 23.2355 32.1516 23.5269 31.8602C23.8182 31.5688 24.1894 31.3704 24.5936 31.29C24.9977 31.2096 25.4166 31.2509 25.7973 31.4086C26.1779 31.5663 26.5033 31.8333 26.7322 32.1759C26.9611 32.5185 27.0833 32.9213 27.0833 33.3333C27.0833 33.8859 26.8638 34.4158 26.4731 34.8065C26.0824 35.1972 25.5525 35.4167 25 35.4167ZM37.5 43.75C37.088 43.75 36.6852 43.6278 36.3426 43.3989C36 43.17 35.7329 42.8446 35.5752 42.4639C35.4176 42.0832 35.3763 41.6644 35.4567 41.2602C35.5371 40.8561 35.7355 40.4849 36.0269 40.1935C36.3182 39.9022 36.6894 39.7037 37.0936 39.6234C37.4977 39.543 37.9166 39.5842 38.2973 39.7419C38.6779 39.8996 39.0033 40.1666 39.2322 40.5092C39.4611 40.8518 39.5833 41.2546 39.5833 41.6667C39.5833 42.2192 39.3638 42.7491 38.9731 43.1398C38.5824 43.5305 38.0525 43.75 37.5 43.75ZM37.5 35.4167C37.088 35.4167 36.6852 35.2945 36.3426 35.0656C36 34.8366 35.7329 34.5113 35.5752 34.1306C35.4176 33.7499 35.3763 33.331 35.4567 32.9269C35.5371 32.5228 35.7355 32.1516 36.0269 31.8602C36.3182 31.5688 36.6894 31.3704 37.0936 31.29C37.4977 31.2096 37.9166 31.2509 38.2973 31.4086C38.6779 31.5663 39.0033 31.8333 39.2322 32.1759C39.4611 32.5185 39.5833 32.9213 39.5833 33.3333C39.5833 33.8859 39.3638 34.4158 38.9731 34.8065C38.5824 35.1972 38.0525 35.4167 37.5 35.4167ZM50 16.2292V20.8333H0V16.2292C0.0629549 14.6313 0.755527 13.1232 1.92651 12.0342C3.09749 10.9452 4.65177 10.3637 6.25 10.4167H8.33333C8.33828 12.0727 8.99835 13.6596 10.1694 14.8306C11.3404 16.0017 12.9273 16.6617 14.5833 16.6667C15.1359 16.6667 15.6658 16.4472 16.0565 16.0565C16.4472 15.6658 16.6667 15.1359 16.6667 14.5833C16.6667 14.0308 16.4472 13.5009 16.0565 13.1102C15.6658 12.7195 15.1359 12.5 14.5833 12.5C14.0308 12.5 13.5009 12.2805 13.1102 11.8898C12.7195 11.4991 12.5 10.9692 12.5 10.4167H29.1667C29.1716 12.0727 29.8317 13.6596 31.0027 14.8306C32.1737 16.0017 33.7606 16.6617 35.4167 16.6667C35.9692 16.6667 36.4991 16.4472 36.8898 16.0565C37.2805 15.6658 37.5 15.1359 37.5 14.5833C37.5 14.0308 37.2805 13.5009 36.8898 13.1102C36.4991 12.7195 35.9692 12.5 35.4167 12.5C34.8641 12.5 34.3342 12.2805 33.9435 11.8898C33.5528 11.4991 33.3333 10.9692 33.3333 10.4167H43.75C45.3482 10.3637 46.9025 10.9452 48.0735 12.0342C49.2445 13.1232 49.937 14.6313 50 16.2292Z" fill="black"/>
</g>
<defs>
<clipPath id="clip0_51_129">
<rect width="50" height="50" fill="white"/>
</clipPath>
</defs>
</svg>
